<svg xmlns="http://www.w3.org/2000/svg" viewBox="0 0 1440 940" font-family="Inter, -apple-system, BlinkMacSystemFont, Segoe UI, Helvetica, Arial, sans-serif">
  <defs>
    <filter id="sh" x="-1%" y="-2%" width="102%" height="108%">
      <feDropShadow dx="0" dy="1" stdDeviation="2" flood-color="#000" flood-opacity=".06"/>
    </filter>
    <marker id="a" markerWidth="7" markerHeight="5" refX="6.5" refY="2.5" orient="auto">
      <polygon points="0 0, 7 2.5, 0 5" fill="#94A3B8"/>
    </marker>
    <marker id="ab" markerWidth="7" markerHeight="5" refX="6.5" refY="2.5" orient="auto">
      <polygon points="0 0, 7 2.5, 0 5" fill="#3B82F6"/>
    </marker>
    <linearGradient id="hdr" x1="0" y1="0" x2="1" y2="0">
      <stop offset="0%" stop-color="#1E3A5F"/>
      <stop offset="100%" stop-color="#1E40AF"/>
    </linearGradient>
    <pattern id="dots" x="0" y="0" width="32" height="32" patternUnits="userSpaceOnUse">
      <circle cx="1" cy="1" r=".5" fill="#E2E8F0"/>
    </pattern>
  </defs>

  <!-- BACKGROUND -->
  <rect width="1440" height="940" fill="#FAFBFC"/>
  <rect x="0" y="60" width="1440" height="880" fill="url(#dots)" opacity=".35"/>

  <!-- TITLE BAR -->
  <rect width="1440" height="60" fill="url(#hdr)"/>
  <text x="720" y="32" text-anchor="middle" font-size="17" font-weight="700" fill="#fff" letter-spacing=".3">Agentic AI Endpoint Detection and Governance</text>
  <text x="720" y="50" text-anchor="middle" font-size="10" fill="#94B8DB">Five-Layer Detection  /  Confidence-Scored Attribution  /  Class-Based Policy  /  Graduated Enforcement</text>

  <!-- ============ ROW 1: FIVE DETECTION LAYERS ============ -->
  <text x="40" y="88" font-size="9.5" font-weight="700" fill="#475569" letter-spacing="1.2">ENDPOINT TELEMETRY  —  FIVE-LAYER DETECTION MODEL</text>

  <!-- A. Process -->
  <rect x="40" y="102" width="252" height="100" rx="8" fill="#fff" stroke="#E2E8F0" filter="url(#sh)"/>
  <rect x="40" y="102" width="252" height="5" rx="3" fill="#0EA5E9"/>
  <text x="60" y="126" font-size="11.5" font-weight="700" fill="#0C4A6E">A. Process / Execution</text>
  <text x="60" y="143" font-size="9.5" fill="#64748B">Binary identity, parent-child lineage</text>
  <text x="60" y="157" font-size="9.5" fill="#64748B">Session shape, command chains</text>
  <rect x="60" y="170" width="46" height="16" rx="8" fill="#E0F2FE"/>
  <text x="83" y="181" text-anchor="middle" font-size="7.5" font-weight="600" fill="#0284C7">w 0.30</text>
  <rect x="114" y="170" width="82" height="16" rx="8" fill="#F0F9FF"/>
  <text x="155" y="181" text-anchor="middle" font-size="7" font-weight="600" fill="#0369A1">MED-HIGH CONF</text>

  <!-- B. File -->
  <rect x="312" y="102" width="252" height="100" rx="8" fill="#fff" stroke="#E2E8F0" filter="url(#sh)"/>
  <rect x="312" y="102" width="252" height="5" rx="3" fill="#6366F1"/>
  <text x="332" y="126" font-size="11.5" font-weight="700" fill="#312E81">B. File / Artifact</text>
  <text x="332" y="143" font-size="9.5" fill="#64748B">Config files, session caches</text>
  <text x="332" y="157" font-size="9.5" fill="#64748B">Model storage, repo mutation patterns</text>
  <rect x="332" y="170" width="46" height="16" rx="8" fill="#EEF2FF"/>
  <text x="355" y="181" text-anchor="middle" font-size="7.5" font-weight="600" fill="#4338CA">w 0.20</text>
  <rect x="386" y="170" width="64" height="16" rx="8" fill="#F5F3FF"/>
  <text x="418" y="181" text-anchor="middle" font-size="7" font-weight="600" fill="#5B21B6">MED CONF</text>

  <!-- C. Network -->
  <rect x="584" y="102" width="252" height="100" rx="8" fill="#fff" stroke="#E2E8F0" filter="url(#sh)"/>
  <rect x="584" y="102" width="252" height="5" rx="3" fill="#3B82F6"/>
  <text x="604" y="126" font-size="11.5" font-weight="700" fill="#1E3A8A">C. Network</text>
  <text x="604" y="143" font-size="9.5" fill="#64748B">Destination endpoints, burst cadence</text>
  <text x="604" y="157" font-size="9.5" fill="#64748B">Process-to-connection linkage</text>
  <rect x="604" y="170" width="46" height="16" rx="8" fill="#DBEAFE"/>
  <text x="627" y="181" text-anchor="middle" font-size="7.5" font-weight="600" fill="#1D4ED8">w 0.15</text>
  <rect x="658" y="170" width="76" height="16" rx="8" fill="#EFF6FF"/>
  <text x="696" y="181" text-anchor="middle" font-size="7" font-weight="600" fill="#1E40AF">LOW-MED CONF</text>

  <!-- D. Identity -->
  <rect x="856" y="102" width="252" height="100" rx="8" fill="#fff" stroke="#E2E8F0" filter="url(#sh)"/>
  <rect x="856" y="102" width="252" height="5" rx="3" fill="#F59E0B"/>
  <text x="876" y="126" font-size="11.5" font-weight="700" fill="#78350F">D. Identity / Access</text>
  <text x="876" y="143" font-size="9.5" fill="#64748B">User/account mapping, endpoint posture</text>
  <text x="876" y="157" font-size="9.5" fill="#64748B">Credential context, org vs personal</text>
  <rect x="876" y="170" width="46" height="16" rx="8" fill="#FEF3C7"/>
  <text x="899" y="181" text-anchor="middle" font-size="7.5" font-weight="600" fill="#B45309">w 0.15</text>
  <rect x="930" y="170" width="64" height="16" rx="8" fill="#FFFBEB"/>
  <text x="962" y="181" text-anchor="middle" font-size="7" font-weight="600" fill="#92400E">MED CONF</text>

  <!-- E. Behavior -->
  <rect x="1128" y="102" width="272" height="100" rx="8" fill="#fff" stroke="#E2E8F0" filter="url(#sh)"/>
  <rect x="1128" y="102" width="272" height="5" rx="3" fill="#8B5CF6"/>
  <text x="1148" y="126" font-size="11.5" font-weight="700" fill="#4C1D95">E. Behavior</text>
  <text x="1148" y="143" font-size="9.5" fill="#64748B">Temporal action sequences</text>
  <text x="1148" y="157" font-size="9.5" fill="#64748B">Prompt-edit-commit loops, fan-out</text>
  <rect x="1148" y="170" width="46" height="16" rx="8" fill="#EDE9FE"/>
  <text x="1171" y="181" text-anchor="middle" font-size="7.5" font-weight="600" fill="#6D28D9">w 0.20</text>
  <rect x="1202" y="170" width="82" height="16" rx="8" fill="#F5F3FF"/>
  <text x="1243" y="181" text-anchor="middle" font-size="7" font-weight="600" fill="#5B21B6">MED-HIGH CONF</text>

  <!-- ARROWS: Layers down to Attribution -->
  <line x1="166" y1="202" x2="166" y2="226" stroke="#94A3B8" stroke-width="1.2" marker-end="url(#a)"/>
  <line x1="438" y1="202" x2="438" y2="226" stroke="#94A3B8" stroke-width="1.2" marker-end="url(#a)"/>
  <line x1="710" y1="202" x2="710" y2="226" stroke="#94A3B8" stroke-width="1.2" marker-end="url(#a)"/>
  <line x1="982" y1="202" x2="982" y2="226" stroke="#94A3B8" stroke-width="1.2" marker-end="url(#a)"/>
  <line x1="1264" y1="202" x2="1264" y2="226" stroke="#94A3B8" stroke-width="1.2" marker-end="url(#a)"/>

  <!-- ============ ROW 2: ATTRIBUTION ENGINE ============ -->
  <rect x="40" y="232" width="1360" height="110" rx="10" fill="#fff" stroke="#3B82F6" stroke-width="1.5" filter="url(#sh)"/>
  <rect x="40" y="232" width="1360" height="32" rx="10" fill="#EFF6FF"/>
  <rect x="40" y="256" width="1360" height="8" fill="#EFF6FF"/>
  <text x="720" y="254" text-anchor="middle" font-size="13" font-weight="700" fill="#1E40AF">ATTRIBUTION ENGINE</text>

  <rect x="72" y="276" width="380" height="48" rx="6" fill="#F8FAFC" stroke="#E2E8F0"/>
  <text x="262" y="296" text-anchor="middle" font-size="10.5" font-weight="600" fill="#334155">Multi-Signal Correlation</text>
  <text x="262" y="312" text-anchor="middle" font-size="9" fill="#64748B">Cross-layer alignment with penalty deductions</text>

  <rect x="480" y="276" width="380" height="48" rx="6" fill="#F8FAFC" stroke="#E2E8F0"/>
  <text x="670" y="296" text-anchor="middle" font-size="10.5" font-weight="600" fill="#334155">Tool Class Assignment</text>
  <text x="670" y="312" text-anchor="middle" font-size="9" fill="#64748B">Capability + risk surface = Class A, B, or C</text>

  <rect x="888" y="276" width="480" height="48" rx="6" fill="#F8FAFC" stroke="#E2E8F0"/>
  <text x="1128" y="296" text-anchor="middle" font-size="10.5" font-weight="600" fill="#334155">Confidence Scoring</text>
  <text x="1128" y="312" text-anchor="middle" font-size="9" fill="#64748B">Low / Medium (0.45-0.74) / High (0.75+)</text>

  <text x="720" y="336" text-anchor="middle" font-size="8" fill="#94A3B8">Hard enforcement requires min. 2 aligned layers (at least one Process or Behavior)  /  Single-layer signal = Detect only</text>

  <!-- ARROW: Attribution down to Policy -->
  <line x1="720" y1="342" x2="720" y2="372" stroke="#94A3B8" stroke-width="1.2" marker-end="url(#a)"/>

  <!-- ============ ROW 3: POLICY ENGINE + TOOL CLASSES ============ -->
  <rect x="240" y="378" width="960" height="110" rx="10" fill="#fff" stroke="#1E40AF" stroke-width="1.5" filter="url(#sh)"/>
  <rect x="240" y="378" width="960" height="32" rx="10" fill="#EFF6FF"/>
  <rect x="240" y="402" width="960" height="8" fill="#EFF6FF"/>
  <text x="720" y="400" text-anchor="middle" font-size="13" font-weight="700" fill="#1E40AF">POLICY ENGINE</text>

  <rect x="272" y="422" width="280" height="48" rx="6" fill="#F8FAFC" stroke="#E2E8F0"/>
  <text x="412" y="442" text-anchor="middle" font-size="10.5" font-weight="600" fill="#334155">Class-to-Controls Mapping</text>
  <text x="412" y="458" text-anchor="middle" font-size="9" fill="#64748B">IDP-scoped rules (Okta, Entra ID)</text>

  <rect x="580" y="422" width="280" height="48" rx="6" fill="#F8FAFC" stroke="#E2E8F0"/>
  <text x="720" y="442" text-anchor="middle" font-size="10.5" font-weight="600" fill="#334155">Enforcement Ladder Eval</text>
  <text x="720" y="458" text-anchor="middle" font-size="9" fill="#64748B">Confidence + sensitivity + trust + risk</text>

  <rect x="888" y="422" width="280" height="48" rx="6" fill="#F8FAFC" stroke="#E2E8F0"/>
  <text x="1028" y="442" text-anchor="middle" font-size="10.5" font-weight="600" fill="#334155">Exception Resolution</text>
  <text x="1028" y="458" text-anchor="middle" font-size="9" fill="#64748B">Time-bound, scoped, dual-approval</text>

  <text x="720" y="482" text-anchor="middle" font-size="8" fill="#94A3B8">Inputs: confidence score / asset sensitivity (Tier 0-3) / actor trust (T0-T3) / action risk (R1-R4) / session history</text>

  <!-- Tool Classes sidebar -->
  <rect x="40" y="378" width="180" height="110" rx="10" fill="#F8FAFC" stroke="#E2E8F0" filter="url(#sh)"/>
  <text x="130" y="400" text-anchor="middle" font-size="9" font-weight="700" fill="#475569" letter-spacing=".8">TOOL CLASSES</text>
  <rect x="56" y="412" width="148" height="22" rx="6" fill="#DBEAFE" stroke="#93C5FD"/>
  <text x="130" y="427" text-anchor="middle" font-size="8.5" font-weight="600" fill="#1E40AF">A  SaaS Copilots / IDE</text>
  <rect x="56" y="440" width="148" height="22" rx="6" fill="#FEF3C7" stroke="#FCD34D"/>
  <text x="130" y="455" text-anchor="middle" font-size="8.5" font-weight="600" fill="#92400E">B  Local Model Runtimes</text>
  <rect x="56" y="468" width="148" height="22" rx="6" fill="#FEE2E2" stroke="#FCA5A5"/>
  <text x="130" y="483" text-anchor="middle" font-size="8.5" font-weight="600" fill="#991B1B">C  Autonomous Executors</text>

  <!-- Design Principles sidebar -->
  <rect x="1220" y="378" width="180" height="110" rx="10" fill="#FFFBEB" stroke="#FDE68A" filter="url(#sh)"/>
  <text x="1310" y="400" text-anchor="middle" font-size="8.5" font-weight="700" fill="#92400E" letter-spacing=".6">DESIGN PRINCIPLES</text>
  <text x="1234" y="418" font-size="8.5" fill="#78350F">Multi-signal attribution</text>
  <text x="1234" y="434" font-size="8.5" fill="#78350F">Class-based governance</text>
  <text x="1234" y="450" font-size="8.5" fill="#78350F">Confidence-scored decisions</text>
  <text x="1234" y="466" font-size="8.5" fill="#78350F">Progressive friction</text>
  <text x="1234" y="482" font-size="8.5" fill="#78350F">Audit-grade evidence</text>

  <!-- ARROWS: Policy down to Outputs -->
  <line x1="460" y1="488" x2="460" y2="522" stroke="#94A3B8" stroke-width="1.2" marker-end="url(#a)"/>
  <line x1="720" y1="488" x2="720" y2="522" stroke="#94A3B8" stroke-width="1.2" marker-end="url(#a)"/>
  <line x1="980" y1="488" x2="980" y2="522" stroke="#94A3B8" stroke-width="1.2" marker-end="url(#a)"/>

  <!-- ============ ROW 4: THREE OUTPUT PATHS ============ -->

  <!-- Enforcement Actions -->
  <rect x="40" y="528" width="440" height="174" rx="10" fill="#fff" stroke="#E2E8F0" filter="url(#sh)"/>
  <rect x="40" y="528" width="440" height="5" rx="3" fill="#EF4444"/>
  <text x="260" y="554" text-anchor="middle" font-size="12" font-weight="700" fill="#1F2937">Enforcement Actions</text>

  <!-- Ladder row 1 -->
  <rect x="62" y="568" width="86" height="32" rx="6" fill="#F1F5F9" stroke="#CBD5E1"/>
  <text x="105" y="582" text-anchor="middle" font-size="8.5" font-weight="600" fill="#475569">0 Observe</text>
  <text x="105" y="594" text-anchor="middle" font-size="7" fill="#94A3B8">telemetry only</text>
  <text x="154" y="586" font-size="10" fill="#94A3B8">&#8594;</text>

  <rect x="166" y="568" width="80" height="32" rx="6" fill="#DBEAFE" stroke="#93C5FD"/>
  <text x="206" y="582" text-anchor="middle" font-size="8.5" font-weight="600" fill="#1E40AF">1 Detect</text>
  <text x="206" y="594" text-anchor="middle" font-size="7" fill="#3B82F6">log, no action</text>
  <text x="252" y="586" font-size="10" fill="#94A3B8">&#8594;</text>

  <rect x="264" y="568" width="76" height="32" rx="6" fill="#FEF3C7" stroke="#FCD34D"/>
  <text x="302" y="582" text-anchor="middle" font-size="8.5" font-weight="600" fill="#92400E">2 Warn</text>
  <text x="302" y="594" text-anchor="middle" font-size="7" fill="#B45309">notify user</text>
  <text x="346" y="586" font-size="10" fill="#94A3B8">&#8594;</text>

  <!-- Ladder row 2 -->
  <rect x="62" y="612" width="126" height="32" rx="6" fill="#FFEDD5" stroke="#FDBA74"/>
  <text x="125" y="626" text-anchor="middle" font-size="8.5" font-weight="600" fill="#9A3412">3 Approval Req.</text>
  <text x="125" y="638" text-anchor="middle" font-size="7" fill="#C2410C">hold for decision</text>
  <text x="194" y="630" font-size="10" fill="#94A3B8">&#8594;</text>

  <rect x="206" y="612" width="86" height="32" rx="6" fill="#FEE2E2" stroke="#FCA5A5"/>
  <text x="249" y="626" text-anchor="middle" font-size="8.5" font-weight="600" fill="#991B1B">4 Block</text>
  <text x="249" y="638" text-anchor="middle" font-size="7" fill="#DC2626">deny action</text>
  <text x="298" y="630" font-size="10" fill="#94A3B8">&#8594;</text>

  <rect x="310" y="612" width="130" height="32" rx="6" fill="#EDE9FE" stroke="#C4B5FD"/>
  <text x="375" y="626" text-anchor="middle" font-size="8.5" font-weight="600" fill="#5B21B6">Redirect</text>
  <text x="375" y="638" text-anchor="middle" font-size="7" fill="#7C3AED">guide to approved</text>

  <text x="260" y="668" text-anchor="middle" font-size="7.5" fill="#94A3B8">Session-stateful: repeated warnings auto-escalate</text>
  <text x="260" y="680" text-anchor="middle" font-size="7.5" fill="#94A3B8">macOS ES framework / Windows WDAC / Linux eBPF</text>
  <text x="260" y="696" text-anchor="middle" font-size="7.5" fill="#94A3B8">Every decision carries explainability payload</text>

  <!-- Audit Pipeline -->
  <rect x="500" y="528" width="440" height="174" rx="10" fill="#fff" stroke="#E2E8F0" filter="url(#sh)"/>
  <rect x="500" y="528" width="440" height="5" rx="3" fill="#3B82F6"/>
  <text x="720" y="554" text-anchor="middle" font-size="12" font-weight="700" fill="#1F2937">Audit / Evidence Pipeline</text>
  <text x="720" y="572" text-anchor="middle" font-size="10" fill="#475569">Canonical event schema per decision</text>

  <rect x="520" y="584" width="130" height="44" rx="6" fill="#F8FAFC" stroke="#E2E8F0"/>
  <text x="585" y="603" text-anchor="middle" font-size="9.5" font-weight="600" fill="#334155">Evidence Objects</text>
  <text x="585" y="617" text-anchor="middle" font-size="8" fill="#64748B">Linked, hashed, immutable</text>

  <rect x="662" y="584" width="130" height="44" rx="6" fill="#F8FAFC" stroke="#E2E8F0"/>
  <text x="727" y="603" text-anchor="middle" font-size="9.5" font-weight="600" fill="#334155">Decision Trace</text>
  <text x="727" y="617" text-anchor="middle" font-size="8" fill="#64748B">Rule ID, signals, penalties</text>

  <rect x="804" y="584" width="118" height="44" rx="6" fill="#F8FAFC" stroke="#E2E8F0"/>
  <text x="863" y="603" text-anchor="middle" font-size="9.5" font-weight="600" fill="#334155">Retention Tiers</text>
  <text x="863" y="617" text-anchor="middle" font-size="8" fill="#64748B">Hot / Warm / Cold</text>

  <text x="720" y="650" text-anchor="middle" font-size="8.5" fill="#64748B">Emits: state, rule_id, signals, penalties,</text>
  <text x="720" y="663" text-anchor="middle" font-size="8.5" fill="#64748B">asset + action summary, evidence IDs</text>
  <text x="720" y="696" text-anchor="middle" font-size="7.5" fill="#94A3B8">SIEM export (JSON) / Compliance archive / Forensic recall</text>

  <!-- Severity Router -->
  <rect x="960" y="528" width="440" height="174" rx="10" fill="#fff" stroke="#E2E8F0" filter="url(#sh)"/>
  <rect x="960" y="528" width="440" height="5" rx="3" fill="#F59E0B"/>
  <text x="1180" y="554" text-anchor="middle" font-size="12" font-weight="700" fill="#1F2937">Severity and Incident Routing</text>

  <rect x="984" y="572" width="52" height="26" rx="6" fill="#F1F5F9" stroke="#CBD5E1"/>
  <text x="1010" y="589" text-anchor="middle" font-size="9" font-weight="700" fill="#475569">S0</text>
  <rect x="1048" y="572" width="52" height="26" rx="6" fill="#DBEAFE" stroke="#93C5FD"/>
  <text x="1074" y="589" text-anchor="middle" font-size="9" font-weight="700" fill="#1E40AF">S1</text>
  <rect x="1112" y="572" width="52" height="26" rx="6" fill="#FEF3C7" stroke="#FCD34D"/>
  <text x="1138" y="589" text-anchor="middle" font-size="9" font-weight="700" fill="#92400E">S2</text>
  <rect x="1176" y="572" width="52" height="26" rx="6" fill="#FFEDD5" stroke="#FDBA74"/>
  <text x="1202" y="589" text-anchor="middle" font-size="9" font-weight="700" fill="#9A3412">S3</text>
  <rect x="1240" y="572" width="64" height="26" rx="6" fill="#FEE2E2" stroke="#FCA5A5"/>
  <text x="1272" y="589" text-anchor="middle" font-size="9" font-weight="700" fill="#991B1B">S4</text>

  <text x="1010" y="610" font-size="7" fill="#94A3B8">Info</text>
  <text x="1070" y="610" font-size="7" fill="#94A3B8">Low</text>
  <text x="1130" y="610" font-size="7" fill="#94A3B8">Medium</text>
  <text x="1198" y="610" font-size="7" fill="#94A3B8">High</text>
  <text x="1270" y="610" font-size="7" fill="#94A3B8">Critical</text>

  <text x="1180" y="636" text-anchor="middle" font-size="8.5" fill="#64748B">Weighted: action risk, asset tier,</text>
  <text x="1180" y="649" text-anchor="middle" font-size="8.5" fill="#64748B">confidence, trust, recurrence</text>

  <rect x="984" y="662" width="192" height="22" rx="6" fill="#F0FDF4" stroke="#BBF7D0"/>
  <text x="1080" y="677" text-anchor="middle" font-size="8" font-weight="600" fill="#166534">S0-S1: Backlog / weekly review</text>
  <rect x="1188" y="662" width="192" height="22" rx="6" fill="#FEF2F2" stroke="#FECACA"/>
  <text x="1284" y="677" text-anchor="middle" font-size="8" font-weight="600" fill="#991B1B">S3-S4: Hours / immediate</text>

  <text x="1180" y="696" text-anchor="middle" font-size="7.5" fill="#94A3B8">Tier 3 explicit-deny cannot score below S3</text>

  <!-- ARROWS: Outputs down to Console -->
  <line x1="260" y1="702" x2="260" y2="726" stroke="#3B82F6" stroke-width="1" stroke-dasharray="4 3" marker-end="url(#ab)"/>
  <line x1="720" y1="702" x2="720" y2="726" stroke="#3B82F6" stroke-width="1" stroke-dasharray="4 3" marker-end="url(#ab)"/>
  <line x1="1180" y1="702" x2="1180" y2="726" stroke="#3B82F6" stroke-width="1" stroke-dasharray="4 3" marker-end="url(#ab)"/>

  <!-- ============ ROW 5: MANAGEMENT CONSOLE ============ -->
  <rect x="40" y="732" width="1360" height="114" rx="10" fill="#F8FAFC" stroke="#CBD5E1" stroke-dasharray="6 3"/>
  <text x="720" y="754" text-anchor="middle" font-size="9.5" font-weight="700" fill="#475569" letter-spacing="1.2">MANAGEMENT CONSOLE  —  CLOUD / ON-PREM</text>

  <rect x="66" y="768" width="230" height="60" rx="8" fill="#fff" stroke="#E2E8F0" filter="url(#sh)"/>
  <text x="181" y="790" text-anchor="middle" font-size="10.5" font-weight="600" fill="#1F2937">Dashboard</text>
  <text x="181" y="806" text-anchor="middle" font-size="8.5" fill="#64748B">Fleet metrics, detection trends</text>
  <text x="181" y="820" text-anchor="middle" font-size="8.5" fill="#64748B">Risk heatmap by team / class</text>

  <rect x="316" y="768" width="230" height="60" rx="8" fill="#fff" stroke="#E2E8F0" filter="url(#sh)"/>
  <text x="431" y="790" text-anchor="middle" font-size="10.5" font-weight="600" fill="#1F2937">Policy Editor</text>
  <text x="431" y="806" text-anchor="middle" font-size="8.5" fill="#64748B">Who / what / how rules matrix</text>
  <text x="431" y="820" text-anchor="middle" font-size="8.5" fill="#64748B">IDP-scoped, version-controlled</text>

  <rect x="566" y="768" width="230" height="60" rx="8" fill="#fff" stroke="#E2E8F0" filter="url(#sh)"/>
  <text x="681" y="790" text-anchor="middle" font-size="10.5" font-weight="600" fill="#1F2937">Tool Inventory</text>
  <text x="681" y="806" text-anchor="middle" font-size="8.5" fill="#64748B">Every AI tool, every endpoint</text>
  <text x="681" y="820" text-anchor="middle" font-size="8.5" fill="#64748B">Install date, user, class, status</text>

  <rect x="816" y="768" width="230" height="60" rx="8" fill="#fff" stroke="#E2E8F0" filter="url(#sh)"/>
  <text x="931" y="790" text-anchor="middle" font-size="10.5" font-weight="600" fill="#1F2937">Alerts Feed</text>
  <text x="931" y="806" text-anchor="middle" font-size="8.5" fill="#64748B">Real-time violations, severity-routed</text>
  <text x="931" y="820" text-anchor="middle" font-size="8.5" fill="#64748B">SIEM / SOAR integration</text>

  <rect x="1066" y="768" width="310" height="60" rx="8" fill="#fff" stroke="#E2E8F0" filter="url(#sh)"/>
  <text x="1221" y="790" text-anchor="middle" font-size="10.5" font-weight="600" fill="#1F2937">Compliance Reports</text>
  <text x="1221" y="806" text-anchor="middle" font-size="8.5" fill="#64748B">AI landscape, coverage, decision quality</text>
  <text x="1221" y="820" text-anchor="middle" font-size="8.5" fill="#64748B">SOC 2 / ISO 27001 / NIST AI RMF</text>

  <!-- Feedback arrow: Policy Editor back up to Policy Engine -->
  <path d="M431,768 L431,752 C431,740 380,740 380,726 L380,494" fill="none" stroke="#3B82F6" stroke-width="1" stroke-dasharray="4 3" marker-end="url(#ab)"/>
  <text x="396" y="740" font-size="7" fill="#3B82F6">policy sync</text>

  <!-- FOOTER -->
  <text x="720" y="880" text-anchor="middle" font-size="9" fill="#94A3B8">Agentic AI Endpoint Detection and Governance  /  Playbook v0.1  /  Architecture Overview</text>
</svg>
